<?xml version="1.0" standalone="no"?>
<!DOCTYPE svg PUBLIC "-//W3C//DTD SVG 20010904//EN"
 "http://www.w3.org/TR/2001/REC-SVG-20010904/DTD/svg10.dtd">
<svg version="1.0" xmlns="http://www.w3.org/2000/svg"
 width="4355.000000pt" height="1181.000000pt" viewBox="0 0 4355.000000 1181.000000"
 preserveAspectRatio="xMidYMid meet">
<metadata>
Created by potrace 1.15, written by Peter Selinger 2001-2017
</metadata>
<g transform="translate(0.000000,1181.000000) scale(0.100000,-0.100000)"
fill="#000000" stroke="none">
<path d="M6215 10553 c-1071 -42 -2070 -426 -2854 -1097 -512 -438 -933 -1006
-1201 -1621 -181 -418 -298 -844 -361 -1315 -30 -231 -38 -712 -15 -956 54
-562 204 -1073 464 -1578 214 -415 475 -770 817 -1111 847 -845 1977 -1339
3260 -1425 171 -11 493 -13 638 -3 l97 6 0 157 0 158 -257 6 c-659 17 -1032
61 -1453 172 -1199 314 -2229 1153 -2789 2273 -469 935 -573 1962 -297 2923
262 913 906 1790 1707 2323 589 392 1249 611 2090 692 176 17 879 18 15584 18
12473 0 15437 -2 15595 -13 219 -14 416 -35 565 -58 114 -18 495 -101 630
-138 611 -166 1201 -502 1676 -954 619 -590 1056 -1389 1228 -2247 62 -307 75
-447 76 -805 0 -342 -6 -425 -51 -695 -124 -735 -457 -1417 -995 -2036 -768
-885 -1810 -1356 -3139 -1419 -130 -6 -3576 -10 -9412 -10 l-9208 0 0 -190 0
-190 9388 0 c6204 0 9436 4 9532 10 828 58 1546 297 2200 731 1037 691 1753
1802 1975 3064 53 305 60 395 60 795 0 391 -4 447 -51 740 -107 675 -392 1346
-808 1905 -263 353 -608 707 -941 965 -468 362 -1027 631 -1620 779 -230 58
-384 85 -725 129 -114 15 -1460 16 -15730 17 -8583 1 -15636 0 -15675 -2z"/>
<path d="M11390 6060 l0 -2290 360 0 360 0 0 2290 0 2290 -360 0 -360 0 0
-2290z"/>
<path d="M20660 6060 l0 -2290 360 0 360 0 0 461 0 461 267 281 c146 155 269
285 272 289 4 4 222 -330 486 -742 l478 -750 425 0 c335 0 423 3 419 13 -3 6
-296 459 -651 1006 l-647 994 59 61 c229 236 1152 1206 1152 1210 0 4 -186 6
-412 6 l-413 0 -715 -726 -715 -726 -3 1371 -2 1371 -360 0 -360 0 0 -2290z"/>
<path d="M33220 6060 l0 -2290 360 0 360 0 0 277 0 278 37 -55 c52 -78 215
-238 303 -297 156 -104 323 -169 531 -204 109 -19 150 -21 334 -16 235 6 330
22 506 83 212 74 387 182 539 334 300 301 460 726 460 1226 0 513 -153 932
-453 1241 -209 215 -452 346 -767 415 -92 19 -134 22 -340 23 -189 0 -252 -4
-320 -18 -187 -39 -348 -105 -486 -197 -92 -62 -254 -220 -307 -300 l-37 -55
0 923 0 922 -360 0 -360 0 0 -2290z m1893 405 c188 -33 351 -113 485 -239 128
-122 211 -251 268 -419 113 -331 63 -743 -123 -1024 -89 -134 -246 -269 -391
-335 -156 -71 -378 -102 -556 -79 -493 66 -824 453 -852 996 -19 366 121 705
375 907 119 95 316 180 466 201 73 10 249 6 328 -8z"/>
<path d="M7060 5930 l0 -2161 1098 4 c1176 4 1144 2 1389 56 291 63 566 208
727 381 115 125 198 278 243 448 31 119 43 362 24 493 -64 435 -349 758 -766
869 -44 12 -87 24 -95 26 -8 3 18 18 60 33 262 97 448 262 556 495 121 264
121 609 -1 874 -134 290 -438 506 -834 592 -222 49 -256 50 -1362 50 l-1039 0
0 -2160z m2110 1477 c168 -45 286 -115 361 -214 62 -81 90 -164 96 -283 15
-287 -142 -487 -452 -572 -78 -22 -95 -22 -732 -26 l-653 -3 0 561 0 561 658
-4 c581 -3 664 -5 722 -20z m-107 -1758 c154 -13 289 -48 406 -104 77 -37 108
-60 171 -123 85 -86 123 -153 146 -260 17 -85 17 -139 -1 -227 -53 -253 -255
-416 -595 -481 -84 -15 -173 -18 -747 -22 l-653 -4 0 616 0 616 578 0 c317 0
630 -5 695 -11z"/>
<path d="M24340 5930 l0 -2160 365 0 365 0 0 895 0 895 1140 0 1140 0 0 -895
0 -895 370 0 370 0 0 2160 0 2160 -370 0 -370 0 0 -935 0 -935 -1140 0 -1140
0 0 935 0 935 -365 0 -365 0 0 -2160z"/>
<path d="M14305 6965 c-440 -68 -819 -126 -843 -130 -24 -3 -42 -10 -40 -15 2
-5 246 -313 542 -685 506 -634 541 -675 570 -675 17 1 407 58 866 129 689 105
835 130 834 142 -1 9 -243 318 -539 687 -476 595 -540 672 -564 671 -14 -1
-386 -57 -826 -124z"/>
<path d="M18280 7073 c-188 -20 -416 -87 -584 -172 -155 -79 -260 -155 -386
-281 -216 -216 -355 -483 -428 -819 -25 -119 -26 -141 -26 -391 0 -250 1 -272
26 -391 150 -697 637 -1151 1348 -1255 159 -23 505 -16 670 14 315 57 574 175
796 363 68 58 193 192 202 217 1 4 -88 97 -197 206 l-200 200 -83 -80 c-146
-140 -333 -236 -558 -286 -92 -20 -131 -23 -310 -22 -193 0 -210 2 -293 27
-270 83 -463 249 -583 501 -141 299 -144 705 -6 999 165 352 480 547 885 547
335 0 631 -110 861 -321 31 -28 58 -50 60 -48 61 66 386 457 386 466 0 21
-174 175 -277 243 -225 151 -498 245 -805 279 -90 10 -417 13 -498 4z"/>
<path d="M29063 5938 c4 -1093 4 -1126 25 -1233 102 -536 421 -856 937 -940
119 -20 369 -19 502 1 393 58 692 250 874 562 l39 67 0 -313 0 -312 355 0 355
0 0 1645 0 1645 -354 0 -355 0 -4 -887 c-4 -852 -5 -892 -25 -983 -70 -325
-228 -547 -477 -671 -147 -73 -230 -92 -400 -92 -111 0 -156 5 -220 22 -264
70 -434 245 -507 521 -22 85 -22 85 -25 1088 l-4 1002 -360 0 -360 0 4 -1122z"/>
<path d="M13353 6738 c-30 -67 -613 -1566 -613 -1577 0 -16 1066 -1351 1079
-1351 5 0 16 17 24 38 220 556 597 1533 597 1550 0 14 -186 254 -521 674 -287
359 -529 661 -538 671 -17 17 -18 17 -28 -5z"/>
<path d="M15385 5508 c-475 -72 -855 -135 -861 -141 -10 -10 -598 -1509 -618
-1574 -5 -16 -3 -23 6 -23 45 1 1701 259 1708 266 13 14 621 1577 618 1590 -2
7 -288 -33 -853 -118z"/>
<path d="M10420 1640 l0 -390 380 0 380 0 0 390 0 390 -380 0 -380 0 0 -390z"/>
<path d="M14490 1640 l0 -380 380 0 380 0 0 380 0 380 -380 0 -380 0 0 -380z"/>
<path d="M7640 1610 l0 -180 170 0 170 0 0 180 0 180 -170 0 -170 0 0 -180z"/>
<path d="M12630 1615 l0 -175 170 0 170 0 0 175 0 175 -170 0 -170 0 0 -175z"/>
<path d="M8570 1610 l0 -170 175 0 175 0 0 170 0 170 -175 0 -175 0 0 -170z"/>
<path d="M9490 1605 l0 -175 175 0 175 0 0 175 0 175 -175 0 -175 0 0 -175z"/>
<path d="M11710 1610 l0 -170 175 0 175 0 0 170 0 170 -175 0 -175 0 0 -170z"/>
<path d="M13560 1610 l0 -170 170 0 170 0 0 170 0 170 -170 0 -170 0 0 -170z"/>
<path d="M15830 1610 l0 -170 170 0 170 0 0 170 0 170 -170 0 -170 0 0 -170z"/>
<path d="M16750 1605 l0 -175 175 0 175 0 0 175 0 175 -175 0 -175 0 0 -175z"/>
<path d="M17680 1610 l0 -170 170 0 170 0 0 170 0 170 -170 0 -170 0 0 -170z"/>
</g>
</svg>
